<?xml version="1.0" standalone="no"?><!DOCTYPE svg PUBLIC "-//W3C//DTD SVG 1.1//EN" "http://www.w3.org/Graphics/SVG/1.1/DTD/svg11.dtd"><svg t="1727403037734" class="icon" viewBox="0 0 1024 1024" version="1.1" xmlns="http://www.w3.org/2000/svg" p-id="4283" xmlns:xlink="http://www.w3.org/1999/xlink" width="128" height="128"><path d="M224 85.333A138.667 138.667 0 0 0 85.333 224v490.667A138.667 138.667 0 0 0 224 853.333h309.93c2.177-10.752 6.145-21.333 11.947-31.402l18.774-32.598H224a74.667 74.667 0 0 1-74.667-74.666v-416h640v47.189a192.341 192.341 0 0 1 64-4.139V224A138.667 138.667 0 0 0 714.667 85.333H224z" p-id="4284"></path><path d="M819.712 384a149.163 149.163 0 0 1 40.96 1.877L790.229 507.82a49.792 49.792 0 1 0 86.187 49.792l70.443-121.984a149.376 149.376 0 0 1-126.934 245.845l-129.322 224a62.208 62.208 0 0 1-107.819-62.208l129.11-223.573A149.333 149.333 0 0 1 819.711 384z" p-id="4285"></path><path d="M647.04 579.2a191.83 191.83 0 0 1-0.81-89.813l-97.622-97.792A21.333 21.333 0 1 0 518.4 421.76l112.768 112.939L518.4 647.595a21.333 21.333 0 0 0 30.208 30.165l98.432-98.56zM420.565 391.595a21.333 21.333 0 0 1 0 30.165L307.5 534.699l113.066 112.896A21.333 21.333 0 1 1 390.4 677.76l-128.128-128a21.333 21.333 0 0 1 0-30.165l128.128-128a21.333 21.333 0 0 1 30.165 0z" p-id="4286"></path></svg>